<svg role="img" aria-label="Facebook Ableton" viewBox="0 0 48 48" fill="none" xmlns="http://www.w3.org/2000/svg"><g clip-path="url(#clip0_4908_1133)"><path d="M48 24C48 10.7452 37.2548 3.05176e-05 24 3.05176e-05C10.7452 3.05176e-05 0 10.7452 0 24C0 35.2555 7.74863 44.6997 18.2022 47.2932V31.334H13.2532V24H18.2022V20.8398C18.2022 12.671 21.8989 8.88473 29.9188 8.88473C31.4392 8.88473 34.0628 9.18281 35.1361 9.48098V16.1294C34.5696 16.0697 33.5858 16.0399 32.3634 16.0399C28.4281 16.0399 26.9075 17.5306 26.9075 21.4063V24H34.7468L33.4001 31.334H26.9075V47.8242C38.791 46.3889 48 36.2705 48 24Z" fill="#0866FF"/><path d="M33.4001 31.334L34.7469 24H26.9076V21.4062C26.9076 17.5305 28.428 16.0399 32.3634 16.0399C33.5857 16.0399 34.5695 16.0697 35.136 16.1293V9.48099C34.0628 9.18282 31.4392 8.88464 29.9187 8.88464C21.899 8.88464 18.2021 12.671 18.2021 20.8398V24H13.2531V31.334H18.2021V47.2932C20.0591 47.7539 22.0007 48 24 48C24.9843 48 25.9543 47.9393 26.9076 47.8242V31.334H33.4001Z" fill="white"/></g><defs><clipPath id="clip0_4908_1133"><rect width="48" height="48" fill="white"/></clipPath></defs></svg>